<?xml version="1.0" encoding="UTF-8" standalone="no"?>
<svg width="116" height="50" viewBox="0 0 116 50" fill="none" xmlns="http://www.w3.org/2000/svg">
    <g filter="url(#filter0_d)">
        <path d="M10.9258 14.3439L12.0904 7.74088C12.3572 6.22791 13.8208 5 15.3569 5H20.4592H34.6167C42.4307 5 47.673 11.2474 46.316 18.9425L46.2405 19.3725C44.8834 27.0677 37.438 33.3151 29.6241 33.3151H16.0756L14.8946 40.0132C14.6278 41.5255 13.1642 42.754 11.6281 42.754H8.69961C7.1635 42.754 6.13294 41.5255 6.39971 40.0132L9.2618 23.7823H32.6287C35.2039 23.7823 37.6579 21.7236 38.1049 19.1874L38.1488 18.9395C38.5959 16.4033 36.8685 14.3439 34.2927 14.3439H10.9258Z" stroke="url(#paint0_linear)" stroke-width="2.5" stroke-miterlimit="3" stroke-linecap="square"/>
        <path d="M5.07061 19.1873L5.11385 18.9394C5.56092 16.4032 8.01492 14.3439 10.5907 14.3439H34.2926C36.8684 14.3439 38.5958 16.4032 38.1487 18.9394L38.1049 19.1873C37.6578 21.7235 35.2038 23.7822 32.6286 23.7822H8.92611C6.3509 23.7822 4.62293 21.7235 5.07061 19.1873Z" stroke="url(#paint1_linear)" stroke-width="2.5" stroke-miterlimit="3" stroke-linecap="square"/>
        <path d="M66.4471 5.10168C69.0268 5.10168 71.2751 5.70143 73.1921 6.90092C75.1091 8.10081 76.4915 9.77132 77.3393 11.9125C78.1872 14.0536 78.3746 16.4658 77.9015 19.149C77.4285 21.8322 76.3839 24.2444 74.7678 26.3855C73.1521 28.5266 71.1742 30.1971 68.8341 31.397C66.494 32.5965 64.0471 33.1963 61.4934 33.1963C58.9393 33.1963 56.6973 32.5965 54.7673 31.397C52.8377 30.1971 51.4425 28.5266 50.5817 26.3855C49.7208 24.2444 49.5269 21.8322 50 19.149C50.4731 16.4658 51.5176 14.0536 53.1337 11.9125C54.7494 9.77132 56.7338 8.10081 59.0869 6.90092C61.4396 5.70143 63.893 5.10168 66.4471 5.10168ZM65.2052 12.1445C63.2703 12.1445 61.6378 12.7702 60.3075 14.0217C58.9777 15.2728 58.1217 16.9819 57.7396 19.149C57.3665 21.2645 57.6233 22.9543 58.5101 24.2184C59.3965 25.4824 60.8072 26.1145 62.742 26.1145C64.6509 26.1145 66.2715 25.4824 67.6037 24.2184C68.936 22.9543 69.7887 21.2645 70.1619 19.149C70.544 16.9819 70.2971 15.2728 69.4212 14.0217C68.5454 12.7702 67.14 12.1445 65.2052 12.1445ZM97.8843 5.25639C100.232 5.25639 102.252 5.68864 103.945 6.55313C105.637 7.41722 106.923 8.64249 107.804 10.2289C108.686 11.8158 109.148 13.654 109.193 15.7436H101.183C100.935 14.6602 100.4 13.8154 99.5782 13.2092C98.7563 12.6025 97.7392 12.2992 96.5267 12.2992C94.8497 12.2992 93.3848 12.925 92.1322 14.1764C90.8799 15.4275 90.0694 17.098 89.7007 19.188C89.3324 21.2775 89.5527 22.9543 90.3616 24.2184C91.1708 25.4824 92.4138 26.1145 94.0904 26.1145C95.3033 26.1145 96.4286 25.805 97.4665 25.1862C98.5044 24.567 99.338 23.7155 99.9674 22.6317H107.978C106.795 25.831 104.881 28.3786 102.238 30.2745C99.5951 32.1708 96.5062 33.1189 92.9715 33.1189C90.2627 33.1189 87.9991 32.532 86.1808 31.3581C84.3629 30.1841 83.0921 28.5396 82.3686 26.4245C81.6454 24.3089 81.5225 21.8968 82.0001 19.188C82.4776 16.4788 83.4511 14.0666 84.9206 11.9514C86.3901 9.83589 88.2409 8.19116 90.473 7.01725C92.7051 5.84334 95.1756 5.25639 97.8843 5.25639Z" stroke="url(#paint2_linear)" stroke-width="2.5" stroke-miterlimit="3" stroke-linecap="square"/>
    </g>
    <defs>
        <filter id="filter0_d" x="0.750244" y="0.75" width="114.719" height="48.254" filterUnits="userSpaceOnUse" color-interpolation-filters="sRGB">
            <feFlood flood-opacity="0" result="BackgroundImageFix"/>
            <feColorMatrix in="SourceAlpha" type="matrix" values="0 0 0 0 0 0 0 0 0 0 0 0 0 0 0 0 0 0 127 0"/>
            <feOffset dx="1" dy="1"/>
            <feGaussianBlur stdDeviation="2"/>
            <feColorMatrix type="matrix" values="0 0 0 0 0 0 0 0 0 0 0 0 0 0 0 0 0 0 0.25 0"/>
            <feBlend mode="normal" in2="BackgroundImageFix" result="effect1_dropShadow"/>
            <feBlend mode="normal" in="SourceGraphic" in2="effect1_dropShadow" result="shape"/>
        </filter>
        <linearGradient id="paint0_linear" x1="6.35767" y1="23.877" x2="46.5299" y2="23.877" gradientUnits="userSpaceOnUse">
            <stop stop-color="#FFCE4D"/>
            <stop offset="0.991304" stop-color="#F7605C"/>
        </linearGradient>
        <linearGradient id="paint1_linear" x1="5" y1="19.0631" x2="38.2192" y2="19.0631" gradientUnits="userSpaceOnUse">
            <stop offset="0.0173913" stop-color="#FFCF4D"/>
            <stop offset="1" stop-color="#F75D5D"/>
        </linearGradient>
        <linearGradient id="paint2_linear" x1="48.0298" y1="19.149" x2="106" y2="19.149" gradientUnits="userSpaceOnUse">
            <stop stop-color="#FFCF4D"/>
            <stop offset="0.995652" stop-color="#F7605C"/>
        </linearGradient>
    </defs>
</svg>