<svg xmlns="http://www.w3.org/2000/svg" xmlns:xlink="http://www.w3.org/1999/xlink" viewBox="0 0 443.32 169.53"><defs><style>.cls-1{fill:url(#New_Gradient_Swatch_1);}.cls-2{fill:#dfdede;}.cls-3{fill:url(#linear-gradient);}</style><linearGradient id="New_Gradient_Swatch_1" x1="183.15" y1="-410.57" x2="443.32" y2="-410.57" gradientTransform="translate(0 495.33)" gradientUnits="userSpaceOnUse"><stop offset="0" stop-color="#009789"/><stop offset="0.47" stop-color="#49ae67"/><stop offset="0.83" stop-color="#79bc51"/><stop offset="1" stop-color="#8bc249"/></linearGradient><linearGradient id="linear-gradient" x1="33.48" y1="136.05" x2="123.76" y2="45.77" gradientUnits="userSpaceOnUse"><stop offset="0" stop-color="#009789"/><stop offset="0.15" stop-color="#169e7f"/><stop offset="0.59" stop-color="#53b163"/><stop offset="0.85" stop-color="#79bc52"/><stop offset="1" stop-color="#8bc249"/></linearGradient></defs><title>POC logo</title><g id="Layer_2" data-name="Layer 2"><g id="Layer_1-2" data-name="Layer 1"><path class="cls-1" d="M209.33,102.44v45.34H183.15V34.23A13.21,13.21,0,0,1,196.42,21h43.14q20.26,0,30.23,10.32,10.32,10.32,10.32,30.6,0,19.17-9.95,30.23-10,10.33-28.76,10.33Zm0-22.86h25.43q10.32,0,14.75-4.43,4.78-4.05,4.8-14,0-8.47-4.43-13.64-5.16-4.43-13.64-4.42H209.33Z"/><path class="cls-1" d="M358.37,68c6.29,6.92,7.87,17,7.87,35.71,0,18.09-2.68,30-7.87,36-5.19,5.82-16,8.81-32.25,8.81s-27.06-3-32.25-8.81c-5.19-6-7.86-17.93-7.86-36s2.67-30,7.86-35.87c5.19-6,16.05-9,32.25-9C343.11,58.9,352.08,61,358.37,68ZM312.44,83.91c-2.05,3.15-3,9.76-3,19.83s.94,16.67,3,20q3.06,4.71,13.68,4.71t13.69-4.71c2-3.31,3.15-9.91,3.15-20s-1.11-16.68-3.15-19.83S333.2,79,326.12,79,314.48,80.61,312.44,83.91Z"/><path class="cls-1" d="M440.64,61a3,3,0,0,1,2.68,3.14V76.52c0,1.73-.95,2.52-2.68,2.52H415q-10.62,0-13.69,4.72c-2,3.14-3,9.75-3,20,0,10.07.95,16.67,3,20q3.07,4.71,13.69,4.71h25.64c1.73,0,2.68.79,2.68,2.36v12.59c0,1.73-.95,2.67-2.68,3a125.59,125.59,0,0,1-25.64,2.2c-17.15,0-26.43-1.89-32.56-9-5.83-7.39-7.4-17-7.4-35.86s1.57-28.63,7.4-35.71c6.13-7.4,15.41-9.13,32.56-9.13C425.38,58.9,433.88,59.53,440.64,61Z"/><path class="cls-2" d="M42.38,42.38l84.77,84.77h36.6a5.78,5.78,0,0,0,5.78-5.78V11.56A11.56,11.56,0,0,0,158,0H48.16a5.78,5.78,0,0,0-5.78,5.78Z"/><path class="cls-3" d="M63.57,106v57.8a5.78,5.78,0,0,0,5.78,5.78h52a5.78,5.78,0,0,0,5.78-5.78V53.94a11.57,11.57,0,0,0-11.56-11.56H5.78A5.78,5.78,0,0,0,0,48.16v52A5.77,5.77,0,0,0,5.78,106Z"/></g></g></svg>